<?xml version="1.0" standalone="no"?>
<!DOCTYPE svg PUBLIC "-//W3C//DTD SVG 20010904//EN"
 "http://www.w3.org/TR/2001/REC-SVG-20010904/DTD/svg10.dtd">
<svg version="1.0" xmlns="http://www.w3.org/2000/svg"
 width="500.000000pt" height="500.000000pt" viewBox="0 0 500.000000 500.000000"
 preserveAspectRatio="xMidYMid meet">
<metadata>
Created by potrace 1.16, written by Peter Selinger 2001-2019
</metadata>
<g transform="translate(0.000000,500.000000) scale(0.100000,-0.100000)"
fill="#000000" stroke="none">
<path d="M2213 4925 c-944 -121 -1723 -754 -2023 -1642 -148 -439 -170 -902
-64 -1348 198 -831 813 -1495 1630 -1758 868 -279 1822 -48 2470 598 368 368
606 841 691 1377 24 157 25 537 0 693 -118 753 -537 1377 -1180 1757 -261 155
-542 256 -858 308 -166 28 -507 35 -666 15z m1236 -1367 c-12 -29 -79 -201
-150 -382 -71 -181 -132 -333 -135 -338 -3 -4 -51 49 -106 119 -55 71 -106
127 -113 127 -7 -1 -140 -111 -294 -244 -259 -223 -283 -242 -298 -227 -9 9
-86 105 -172 213 -86 109 -161 197 -166 195 -6 -1 -148 -117 -317 -257 -170
-140 -312 -254 -316 -254 -10 0 -107 98 -101 103 2 2 161 133 352 291 192 158
359 292 372 298 42 19 70 2 131 -79 116 -155 245 -314 253 -311 4 2 111 93
238 202 l231 199 -109 136 c-86 107 -106 137 -92 140 36 8 769 119 790 120
l23 1 -21 -52z m250 -1060 c-12 -29 -82 -208 -156 -398 -74 -190 -138 -349
-142 -353 -5 -4 -52 47 -106 115 -54 68 -103 129 -110 137 -11 11 -66 -32
-318 -248 -168 -143 -308 -261 -310 -261 -3 0 -85 101 -182 225 -97 124 -178
225 -181 225 -4 0 -348 -281 -628 -514 l-48 -40 -49 51 c-27 28 -49 56 -49 61
0 9 683 577 739 614 62 42 72 34 271 -221 74 -95 138 -175 142 -177 8 -5 498
412 498 423 0 3 -50 68 -111 145 -61 76 -110 140 -108 142 6 5 799 124 836
125 l33 1 -21 -52z"/>
</g>
</svg>
