<?xml version="1.0" standalone="no"?>
<!DOCTYPE svg PUBLIC "-//W3C//DTD SVG 20010904//EN"
 "http://www.w3.org/TR/2001/REC-SVG-20010904/DTD/svg10.dtd">
<svg version="1.0" xmlns="http://www.w3.org/2000/svg"
 width="499.000000pt" height="140.000000pt" viewBox="0 0 499.000000 140.000000"
 preserveAspectRatio="xMidYMid meet">
<metadata>
Created by potrace 1.16, written by Peter Selinger 2001-2019
</metadata>
<g transform="translate(0.000000,140.000000) scale(0.100000,-0.100000)"
fill="#000000" stroke="none">
<path d="M390 1194 c-198 -53 -342 -216 -372 -422 -10 -69 -9 -92 5 -159 35
-163 133 -295 268 -360 95 -46 145 -56 257 -51 91 3 104 7 186 46 154 74 246
192 283 365 34 158 -19 330 -141 452 -124 123 -315 174 -486 129z m309 -315
c-11 -30 -25 -65 -31 -79 l-10 -25 -22 26 -23 27 -57 -49 c-32 -27 -61 -49
-64 -49 -4 0 -20 18 -36 40 -17 22 -32 40 -36 40 -3 0 -34 -23 -68 -51 -46
-37 -67 -48 -75 -40 -7 7 -4 16 14 30 13 10 46 37 74 60 27 22 54 41 60 41 5
0 23 -18 39 -40 l29 -39 26 18 c14 11 36 30 49 43 l22 25 -21 26 c-11 15 -19
27 -17 28 18 4 164 25 166 23 1 -1 -7 -26 -19 -55z m41 -250 l-33 -82 -24 27
-24 28 -45 -39 c-85 -71 -84 -70 -105 -41 -55 75 -46 74 -122 11 -49 -41 -71
-53 -79 -45 -8 8 -2 18 21 38 88 74 126 104 131 104 4 0 21 -20 40 -45 l33
-45 41 33 c57 48 64 62 41 86 -10 12 -15 24 -11 28 7 7 158 31 165 27 2 -2
-11 -40 -29 -85z"/>
<path d="M3120 705 l0 -245 60 0 60 0 0 245 0 245 -60 0 -60 0 0 -245z"/>
<path d="M1190 690 l0 -230 155 0 155 0 0 50 0 50 -90 0 -90 0 0 180 0 180
-65 0 -65 0 0 -230z"/>
<path d="M3767 852 c-9 -21 -27 -46 -41 -56 -33 -21 -36 -66 -6 -66 18 0 20
-7 21 -92 1 -113 7 -136 41 -161 29 -22 99 -28 151 -14 24 7 27 12 27 52 l0
44 -42 -2 -43 -2 -3 88 -3 87 41 0 40 0 0 45 0 45 -40 0 c-39 0 -40 1 -40 35
0 35 0 35 -44 35 -42 0 -45 -2 -59 -38z"/>
<path d="M1673 821 c-79 -20 -122 -84 -123 -180 0 -123 66 -185 195 -184 39 0
82 6 98 12 24 9 27 16 27 56 0 42 -2 45 -19 36 -10 -6 -44 -13 -74 -17 -51 -6
-58 -4 -82 20 -14 14 -23 31 -20 36 4 6 54 10 116 10 l110 0 -6 58 c-8 69 -30
110 -70 133 -37 21 -109 30 -152 20z"/>
<path d="M2090 824 c-52 -9 -100 -25 -100 -34 0 -5 7 -24 16 -43 l16 -34 44
15 c51 17 90 10 97 -17 4 -16 -3 -19 -59 -24 -113 -11 -161 -52 -151 -133 5
-52 26 -79 73 -94 41 -14 97 0 130 31 l23 22 12 -27 c10 -22 18 -26 56 -26
l43 0 0 130 c0 149 -11 190 -59 215 -33 17 -101 26 -141 19z"/>
<path d="M2560 819 c-14 -6 -35 -20 -48 -32 -20 -18 -24 -19 -32 -7 -5 8 -10
21 -10 28 0 8 -17 12 -50 12 l-50 0 0 -180 0 -180 65 0 65 0 0 109 c0 102 2
111 22 125 12 9 39 16 59 16 l36 0 6 53 c6 66 -7 78 -63 56z"/>
<path d="M2854 819 c-17 -5 -37 -16 -44 -24 -17 -20 -27 -19 -33 5 -4 16 -14
20 -51 20 l-46 0 0 -180 0 -180 60 0 60 0 0 93 c0 118 12 165 46 173 48 12 59
-13 63 -146 l3 -120 59 0 59 0 0 130 c0 142 -11 187 -52 213 -31 21 -86 28
-124 16z"/>
<path d="M4375 826 c-5 -3 -22 -7 -37 -10 -133 -30 -160 -269 -39 -340 39 -22
137 -26 184 -8 24 10 27 16 27 61 l0 49 -37 -14 c-84 -30 -123 -6 -123 76 0
81 42 107 122 75 14 -6 22 2 37 36 l18 44 -22 12 c-23 12 -113 25 -130 19z"/>
<path d="M4675 821 c-70 -18 -103 -63 -91 -124 8 -42 26 -59 99 -92 66 -31 75
-40 48 -54 -19 -10 -90 -2 -133 14 -16 6 -18 1 -18 -43 0 -51 0 -51 38 -59 53
-11 146 -8 181 7 40 16 61 51 61 100 0 60 -14 77 -87 113 -85 41 -95 62 -27
55 27 -3 56 -9 65 -12 11 -5 20 4 32 29 9 20 17 37 17 40 0 17 -141 37 -185
26z"/>
<path d="M3351 648 c38 -94 69 -180 69 -189 0 -23 -47 -59 -76 -59 -22 0 -24
-4 -24 -45 0 -39 3 -45 24 -51 33 -8 106 14 134 39 37 34 37 35 173 400 l28
77 -63 0 -63 0 -35 -117 -35 -118 -27 90 c-15 50 -31 101 -35 115 -7 23 -13
25 -74 28 l-66 3 70 -173z"/>
<path d="M4020 640 l0 -180 65 0 65 0 0 180 0 180 -65 0 -65 0 0 -180z"/>
</g>
</svg>
